<svg xmlns="http://www.w3.org/2000/svg" width="800" height="300" viewBox="0 0 800 300" fill="none">
  <defs>
    <linearGradient id="c1" x1="0" y1="0" x2="1" y2="1">
      <stop offset="0" stop-color="#24d68a"/>
      <stop offset="1" stop-color="#00bcd4"/>
    </linearGradient>
    <linearGradient id="bg" x1="0" y1="0" x2="0" y2="1">
      <stop offset="0" stop-color="#172238"/>
      <stop offset="1" stop-color="#0d1424"/>
    </linearGradient>
    <filter id="shadow" x="-20%" y="-20%" width="140%" height="140%">
      <feDropShadow dx="0" dy="8" stdDeviation="12" flood-color="#000" flood-opacity="0.3"/>
    </filter>
  </defs>
  <rect width="800" height="300" rx="18" fill="url(#bg)"/>
  <g transform="translate(40,40)" filter="url(#shadow)">
    <rect width="720" height="220" rx="14" fill="#0f1a2a" stroke="#223049"/>
    <g transform="translate(24,24)">
      <rect x="0" y="0" width="420" height="44" rx="10" fill="#122038" stroke="#223049"/>
      <rect x="0" y="64" width="300" height="44" rx="10" fill="#122038" stroke="#223049"/>
      <rect x="0" y="128" width="520" height="64" rx="12" fill="#122038" stroke="#223049"/>
      <g transform="translate(460,-10)">
        <circle cx="64" cy="64" r="48" fill="url(#c1)"/>
        <path d="M40 64l18 18 30-36" fill="none" stroke="#0f1a2a" stroke-width="10" stroke-linecap="round" stroke-linejoin="round"/>
      </g>
    </g>
  </g>
  <g transform="translate(580,20)" opacity="0.2">
    <circle cx="20" cy="20" r="6" fill="#fff"/>
    <circle cx="70" cy="80" r="4" fill="#fff"/>
    <circle cx="40" cy="120" r="5" fill="#fff"/>
  </g>
</svg>

