<svg xmlns="http://www.w3.org/2000/svg" width="800" height="300" viewBox="0 0 800 300" fill="none">
  <defs>
    <linearGradient id="g1" x1="0" y1="0" x2="1" y2="1">
      <stop offset="0" stop-color="#1e88e5"/>
      <stop offset="1" stop-color="#00bcd4"/>
    </linearGradient>
    <linearGradient id="g2" x1="0" y1="0" x2="0" y2="1">
      <stop offset="0" stop-color="#20304a"/>
      <stop offset="1" stop-color="#0e1626"/>
    </linearGradient>
    <filter id="shadow" x="-20%" y="-20%" width="140%" height="140%">
      <feDropShadow dx="0" dy="8" stdDeviation="12" flood-color="#000" flood-opacity="0.3"/>
    </filter>
  </defs>
  <rect width="800" height="300" rx="18" fill="url(#g2)"/>
  <g transform="translate(40,40)" filter="url(#shadow)">
    <rect width="720" height="220" rx="14" fill="#0f1a2a" stroke="#223049"/>
    <g transform="translate(24,24)">
      <circle cx="48" cy="48" r="36" fill="url(#g1)" opacity="0.9"/>
      <rect x="110" y="24" width="420" height="16" rx="8" fill="#2c3a55"/>
      <rect x="110" y="50" width="320" height="12" rx="6" fill="#24324a"/>
      <rect x="0" y="110" width="680" height="12" rx="6" fill="#1a2741"/>
      <rect x="0" y="132" width="540" height="12" rx="6" fill="#1a2741"/>
      <rect x="0" y="154" width="610" height="12" rx="6" fill="#1a2741"/>
      <g transform="translate(540,-8)" opacity="0.8">
        <path d="M20 20h100v64H20z" fill="#122038" stroke="#223049"/>
        <path d="M30 52h60" stroke="url(#g1)" stroke-width="12" stroke-linecap="round"/>
        <circle cx="90" cy="36" r="6" fill="#24d68a"/>
      </g>
    </g>
  </g>
  <g transform="translate(600,24)" opacity="0.2">
    <circle cx="40" cy="20" r="6" fill="#fff"/>
    <circle cx="70" cy="60" r="4" fill="#fff"/>
    <circle cx="20" cy="90" r="5" fill="#fff"/>
  </g>
</svg>

